<svg version="1.0" xmlns="http://www.w3.org/2000/svg"
     width="238.000000pt" height="68.000000pt" viewBox="0 0 238.000000 68.000000"
     preserveAspectRatio="xMidYMid meet">
    <g transform="translate(0.000000,68.000000) scale(0.100000,-0.100000)"
       fill="#fff" stroke="none">
        <path d="M196 645 c-2 -7 1 -16 9 -19 7 -2 16 1 19 9 2 7 -1 16 -9 19 -7 2
-16 -1 -19 -9z"/>
        <path d="M320 505 c0 -8 7 -15 15 -15 8 0 15 7 15 15 0 8 -7 15 -15 15 -8 0
-15 -7 -15 -15z"/>
        <path d="M197 483 c-12 -11 -8 -23 8 -23 8 0 15 7 15 15 0 16 -12 20 -23 8z"/>
        <path d="M834 426 c-3 -8 -4 -93 -2 -191 4 -222 -2 -215 160 -215 126 0 168
14 168 55 0 30 -16 33 -23 5 -5 -19 -14 -20 -135 -20 -109 0 -131 3 -136 16
-3 9 -6 56 -6 105 l0 89 125 0 c104 0 125 2 125 15 0 13 -21 15 -125 15 l-125
0 0 70 c0 65 -12 92 -26 56z"/>
        <path d="M1220 230 l0 -210 139 0 c171 0 180 5 188 97 7 75 -3 148 -23 168
-12 12 -43 15 -150 15 l-134 0 0 70 c0 40 -4 70 -10 70 -6 0 -10 -77 -10 -210z
m298 -60 c2 -80 0 -97 -15 -107 -11 -9 -56 -13 -140 -13 l-123 0 0 110 0 111
138 -3 137 -3 3 -95z"/>
        <path d="M240 365 c0 -8 7 -15 15 -15 8 0 15 7 15 15 0 8 -7 15 -15 15 -8 0
-15 -7 -15 -15z"/>
        <path d="M310 286 c0 -9 7 -16 16 -16 9 0 14 5 12 12 -6 18 -28 21 -28 4z"/>
        <path d="M470 280 c-17 -17 -20 -33 -20 -115 0 -88 2 -98 25 -120 23 -24 31
-25 135 -25 133 0 169 14 170 64 0 19 -1 19 -23 -2 -20 -19 -35 -21 -139 -23
-64 -1 -121 2 -127 5 -6 4 -11 27 -11 52 l0 44 150 0 150 0 0 53 c0 82 -10 87
-163 87 -114 0 -129 -2 -147 -20z m278 -22 c7 -7 12 -25 12 -40 l0 -28 -140 0
-140 0 0 33 c0 19 3 37 7 40 12 13 248 8 261 -5z"/>
        <path d="M115 280 c-4 -6 -3 -16 3 -22 6 -6 12 -6 17 2 4 6 3 16 -3 22 -6 6
-12 6 -17 -2z"/>
        <path d="M270 246 c0 -8 4 -17 9 -20 10 -7 23 19 14 28 -11 11 -23 6 -23 -8z"/>
        <path d="M162 238 c6 -18 28 -21 28 -4 0 9 -7 16 -16 16 -9 0 -14 -5 -12 -12z"/>
        <path d="M70 206 c0 -9 7 -16 16 -16 17 0 14 22 -4 28 -7 2 -12 -3 -12 -12z"/>
        <path d="M120 201 c0 -14 5 -19 15 -14 17 6 15 25 -3 31 -7 2 -12 -5 -12 -17z"/>
        <path d="M220 205 c0 -8 7 -15 15 -15 8 0 15 7 15 15 0 8 -7 15 -15 15 -8 0
-15 -7 -15 -15z"/>
        <path d="M317 213 c-12 -11 -8 -23 8 -23 8 0 15 7 15 15 0 16 -12 20 -23 8z"/>
        <path d="M72 154 c1 -9 9 -19 16 -22 9 -3 13 2 10 14 -1 9 -9 19 -16 22 -9 3
-13 -2 -10 -14z"/>
        <path d="M114 159 c-10 -17 13 -36 27 -22 12 12 4 33 -11 33 -5 0 -12 -5 -16
-11z"/>
        <path d="M170 150 c0 -13 5 -20 13 -17 6 2 12 10 12 17 0 7 -6 15 -12 18 -8 2
-13 -5 -13 -18z"/>
        <path d="M270 150 c0 -11 7 -20 15 -20 8 0 15 6 15 14 0 8 -7 16 -15 20 -10 4
-15 -1 -15 -14z"/>
        <path d="M314 159 c-10 -17 13 -36 27 -22 12 12 4 33 -11 33 -5 0 -12 -5 -16
-11z"/>
        <path d="M70 105 c0 -8 7 -15 15 -15 8 0 15 7 15 15 0 8 -7 15 -15 15 -8 0
-15 -7 -15 -15z"/>
        <path d="M110 105 c0 -8 9 -15 20 -15 11 0 20 7 20 15 0 8 -9 15 -20 15 -11 0
-20 -7 -20 -15z"/>
        <path d="M170 105 c0 -8 7 -15 15 -15 8 0 15 7 15 15 0 8 -7 15 -15 15 -8 0
-15 -7 -15 -15z"/>
        <path d="M217 113 c-13 -12 -7 -23 13 -23 11 0 20 7 20 15 0 15 -21 21 -33 8z"/>
        <path d="M270 105 c0 -8 7 -15 15 -15 8 0 15 7 15 15 0 8 -7 15 -15 15 -8 0
-15 -7 -15 -15z"/>
        <path d="M310 105 c0 -8 9 -15 20 -15 11 0 20 7 20 15 0 8 -9 15 -20 15 -11 0
-20 -7 -20 -15z"/>
        <path d="M70 55 c0 -8 7 -15 15 -15 8 0 15 7 15 15 0 8 -7 15 -15 15 -8 0 -15
-7 -15 -15z"/>
        <path d="M117 64 c-13 -13 -7 -24 14 -24 11 0 19 5 17 12 -5 14 -22 21 -31 12z"/>
        <path d="M170 55 c0 -8 7 -15 15 -15 8 0 15 7 15 15 0 8 -7 15 -15 15 -8 0
-15 -7 -15 -15z"/>
        <path d="M217 64 c-13 -13 -7 -24 14 -24 11 0 19 5 17 12 -5 14 -22 21 -31 12z"/>
        <path d="M270 55 c0 -8 7 -15 15 -15 8 0 15 7 15 15 0 8 -7 15 -15 15 -8 0
-15 -7 -15 -15z"/>
        <path d="M315 60 c-3 -6 1 -13 10 -16 19 -8 30 0 20 15 -8 14 -22 14 -30 1z"/>
    </g>
</svg>
